Coordinates
version=1
nRows=5
nColumns=40
inDegrees=yes

Units are S.I. units (second, meters, Newtons, ...)
Angles are in degrees.

endheader
time	pelvis_tilt	pelvis_list	pelvis_rotation	pelvis_tx	pelvis_ty	pelvis_tz	hip_flexion_r	hip_adduction_r	hip_rotation_r	knee_angle_r	knee_angle_r_beta	ankle_angle_r	subtalar_angle_r	mtp_angle_r	hip_flexion_l	hip_adduction_l	hip_rotation_l	knee_angle_l	knee_angle_l_beta	ankle_angle_l	subtalar_angle_l	mtp_angle_l	lumbar_extension	lumbar_bending	lumbar_rotation	arm_flex_r	arm_add_r	arm_rot_r	elbow_flex_r	pro_sup_r	wrist_flex_r	wrist_dev_r	arm_flex_l	arm_add_l	arm_rot_l	elbow_flex_l	pro_sup_l	wrist_flex_l	wrist_dev_l
     43.93250000	     -4.55786171	     -5.84487632	      3.48764192	      1.05633823	      0.92718557	      0.46595436	      3.66263778	     -1.59381910	    -16.32637562	     25.50088003	     25.50088003	     14.31597517	      1.00169909	     -7.02033222	     25.18925411	     -6.32144179	     -2.68632949	     24.56180265	     24.56180265	      8.08951728	    -10.15270112	      3.39200441	     -8.19590169	      4.90676733	      3.17808360	     23.79442477	    -17.04713174	     -8.88060313	     63.23849852	     45.03123455	      0.00000000	      0.00000000	      1.39918788	     -8.13914173	     -4.61337135	     27.04372613	     45.50719502	      0.00000000	      0.00000000
     43.94628571	     -4.55520745	     -5.99479545	      3.05696042	      1.05610505	      0.92809677	      0.46304059	      5.14869143	     -2.02932824	    -15.31625286	     28.63868326	     28.63868326	     12.75465429	     -1.08847692	     -9.17574833	     24.67583286	     -6.67878529	     -3.88699102	     24.52982597	     24.52982597	      8.69498926	     -8.79512467	      2.78190056	     -8.18200027	      4.97276385	      3.11800881	     22.97468774	    -16.85647451	     -8.41465696	     60.30196247	     45.12977457	      0.00000000	      0.00000000	      2.22317178	     -8.43010898	     -4.56896712	     27.36309761	     45.53931742	      0.00000000	      0.00000000
     43.96007143	     -4.51438673	     -5.91401145	      2.67765417	      1.05565653	      0.92894093	      0.46001738	      6.89324026	     -2.89634651	    -14.71603041	     32.39815606	     32.39815606	     11.72095718	     -2.23130081	     -9.89071760	     23.97722028	     -6.62444347	     -4.66387956	     24.23233739	     24.23233739	      9.15094247	     -8.15036662	      2.49675482	     -8.33395362	      4.78320392	      2.96829016	     21.61677356	    -16.65101900	     -8.10675904	     59.13274862	     45.15534421	      0.00000000	      0.00000000	      3.09849926	     -8.79007742	     -4.61733084	     27.85704500	     45.56643047	      0.00000000	      0.00000000
     43.97385714	     -4.51239369	     -5.85925178	      2.29151817	      1.05498836	      0.92956998	      0.45727773	      8.87045761	     -3.63172632	    -13.86790007	     36.31420703	     36.31420703	     10.49546887	     -3.75997579	    -10.37053717	     23.42082386	     -6.65100540	     -5.57576874	     24.07924444	     24.07924444	      9.53421759	     -7.32497281	      2.11878963	     -8.44258485	      4.65826006	      2.95880653	     20.17366540	    -16.51719489	     -7.72295229	     57.63193199	     45.18890643	      0.00000000	      0.00000000	      4.03724475	     -9.19424794	     -4.66169324	     28.42046395	     45.59319332	      0.00000000	      0.00000000
     43.98764286	     -4.48943702	     -5.86671586	      1.91094180	      1.05426594	      0.93004879	      0.45493583	     10.92128807	     -4.16309779	    -12.88806085	     40.22199152	     40.22199152	      9.20005564	     -5.43899169	    -10.56411418	     22.86503245	     -6.76761317	     -6.45980406	     23.96264456	     23.96264456	     10.02775141	     -6.42212394	      1.63958650	     -8.53479722	      4.50289081	      2.92471483	     18.73446967	    -16.35482108	     -7.24965133	     55.91333663	     45.22640030	      0.00000000	      0.00000000	      5.01638420	     -9.64528200	     -4.68521946	     29.00337306	     45.61723984	      0.00000000	      0.00000000
